<svg id="svg" version="1.1" width="400" height="394" xmlns="http://www.w3.org/2000/svg" xmlns:xlink="http://www.w3.org/1999/xlink" style="display: block;"><g id="svgg"><path id="path0" d="M280.000 25.583 C 280.000 27.349,282.153 27.042,282.771 25.188 C 282.989 24.534,282.454 24.000,281.583 24.000 C 280.712 24.000,280.000 24.712,280.000 25.583 M235.000 53.858 C 209.313 61.504,200.848 93.525,219.281 113.320 C 221.678 115.894,224.171 118.000,224.820 118.000 C 225.469 118.000,226.000 118.441,226.000 118.981 C 226.000 119.520,227.208 120.265,228.683 120.635 C 230.159 121.006,232.522 121.912,233.933 122.648 C 237.567 124.545,253.635 124.439,257.364 122.494 C 258.940 121.672,260.675 121.000,261.220 121.000 C 262.459 121.000,269.715 115.343,272.763 112.000 C 279.737 104.353,283.869 86.345,280.360 78.884 C 279.744 77.573,278.446 74.596,277.477 72.270 C 271.756 58.540,250.387 49.278,235.000 53.858 M257.542 57.806 C 291.102 71.873,281.846 120.995,245.634 120.999 C 214.202 121.003,200.658 82.465,225.175 62.785 C 233.638 55.991,247.957 53.789,257.542 57.806 M234.152 70.868 C 230.194 73.426,233.393 75.495,241.761 75.790 C 250.532 76.100,251.588 76.878,248.235 80.561 C 247.264 81.628,244.677 84.746,242.485 87.491 C 240.293 90.236,237.518 93.574,236.318 94.908 C 227.258 104.977,228.869 107.123,245.230 106.779 L 258.500 106.500 258.500 104.000 C 258.500 101.559,258.306 101.493,250.250 101.210 C 239.828 100.843,239.827 100.895,250.554 87.461 C 257.758 78.439,259.060 76.256,258.804 73.624 L 258.500 70.500 247.000 70.248 C 240.675 70.110,234.893 70.389,234.152 70.868 M83.500 124.115 C 61.891 140.205,45.000 170.755,45.000 193.752 C 45.000 200.840,44.447 201.000,19.935 201.000 L 0.000 201.000 0.000 203.500 L 0.000 206.000 22.500 206.000 L 45.000 206.000 44.995 210.250 C 44.992 212.588,45.632 216.525,46.416 219.000 C 47.200 221.475,48.608 226.200,49.546 229.500 C 50.483 232.800,51.869 236.388,52.625 237.473 C 53.381 238.557,54.000 240.013,54.000 240.707 C 54.000 241.859,59.640 251.821,60.959 253.000 C 61.267 253.275,62.689 255.300,64.119 257.500 C 67.221 262.271,72.735 268.012,79.531 273.545 C 89.497 281.659,84.186 281.000,139.593 281.000 L 189.255 281.000 195.878 276.070 C 203.235 270.593,208.872 264.959,214.352 257.606 L 218.000 252.712 217.996 200.606 C 217.993 151.172,217.895 148.340,216.092 145.383 C 213.470 141.083,200.441 127.877,195.100 124.106 L 190.700 121.000 139.100 121.068 L 87.500 121.137 83.500 124.115 M192.100 129.144 C 196.729 132.451,206.006 141.501,209.774 146.385 L 212.000 149.270 212.000 200.578 L 212.000 251.886 206.514 258.353 C 203.496 261.910,197.984 267.107,194.264 269.901 L 187.500 274.981 139.797 274.990 C 93.454 275.000,87.000 274.623,87.000 271.907 C 87.000 271.482,86.123 270.856,85.051 270.516 C 76.939 267.941,57.988 240.223,54.103 225.250 C 53.496 222.912,52.502 219.099,51.893 216.776 C 44.517 188.638,62.039 144.615,86.886 128.857 L 91.392 126.000 139.546 126.000 L 187.700 126.000 192.100 129.144 M103.750 161.055 C 99.721 163.459,101.764 216.717,106.204 225.013 C 110.308 232.682,119.561 241.014,125.500 242.390 C 138.055 245.298,139.889 245.296,148.883 242.363 C 158.072 239.366,166.772 230.722,170.383 221.000 C 171.826 217.116,172.017 212.667,171.778 188.500 L 171.500 160.500 166.169 160.195 C 157.673 159.709,158.002 158.556,157.984 188.872 C 157.968 214.640,157.894 215.629,155.712 219.500 C 148.575 232.158,131.227 234.122,122.162 223.298 C 117.007 217.142,116.748 215.576,116.089 186.500 L 115.500 160.500 110.500 160.256 C 107.750 160.121,104.713 160.481,103.750 161.055 M102.000 298.500 L 102.000 313.105 107.250 312.802 L 112.500 312.500 112.500 298.500 L 112.500 284.500 107.250 284.198 L 102.000 283.895 102.000 298.500 M124.437 285.303 C 124.162 286.019,124.064 292.432,124.219 299.553 L 124.500 312.500 128.824 312.811 C 135.573 313.297,136.000 312.473,136.000 298.959 C 136.000 292.472,135.727 286.452,135.393 285.582 C 134.616 283.556,125.199 283.317,124.437 285.303 M147.222 298.197 L 147.500 312.500 152.500 312.500 L 157.500 312.500 157.500 298.500 L 157.500 284.500 152.222 284.197 L 146.944 283.894 147.222 298.197 M168.712 284.622 C 168.320 285.013,168.000 291.053,168.000 298.044 C 168.000 312.564,168.358 313.302,175.176 312.811 L 179.500 312.500 179.500 298.500 L 179.500 284.500 174.462 284.205 C 171.690 284.043,169.103 284.230,168.712 284.622 " stroke="none" fill="#000000" fill-rule="evenodd"></path></g></svg>